<?xml version="1.0" encoding="utf-8"?>
<!-- Generator: Adobe Illustrator 22.1.0, SVG Export Plug-In . SVG Version: 6.00 Build 0)  -->
<svg version="1.1" id="Layer_1" xmlns="http://www.w3.org/2000/svg" xmlns:xlink="http://www.w3.org/1999/xlink" x="0px" y="0px"
	 viewBox="0 0 110.7 21.6" style="enable-background:new 0 0 110.7 21.6;" xml:space="preserve">
<style type="text/css">
	.st0{fill:#FFFFFF;}
</style>
<path class="st0" d="M0.2,21.1C0.1,20.9,0,20.8,0,20.6V1.1c0-0.2,0.1-0.4,0.2-0.6c0.1-0.1,0.3-0.2,0.5-0.2h14c0.2,0,0.4,0.1,0.6,0.2
	s0.2,0.3,0.2,0.6v3.2c0,0.2-0.1,0.4-0.2,0.5C15.1,4.9,14.9,5,14.7,5H5.5v4.2h8.6c0.2,0,0.4,0.1,0.6,0.2c0.1,0.1,0.2,0.3,0.2,0.6v3.2
	c0,0.2-0.1,0.4-0.2,0.5c-0.2,0.1-0.3,0.2-0.6,0.2H5.5v6.7c0,0.2-0.1,0.4-0.2,0.5c-0.1,0.2-0.3,0.2-0.5,0.2h-4
	C0.5,21.3,0.4,21.2,0.2,21.1z"/>
<path class="st0" d="M18.5,21.1c-0.1-0.1-0.2-0.3-0.2-0.5V0.8c0-0.2,0.1-0.4,0.2-0.5C18.7,0.1,18.9,0,19.1,0h3.8
	c0.2,0,0.4,0.1,0.5,0.2c0.1,0.1,0.2,0.3,0.2,0.5v19.8c0,0.2-0.1,0.4-0.2,0.5c-0.1,0.2-0.3,0.2-0.5,0.2h-3.8
	C18.9,21.3,18.7,21.2,18.5,21.1z"/>
<path class="st0" d="M28.8,21c-0.9-0.4-1.6-1-2-1.7c-0.5-0.7-0.7-1.5-0.7-2.4c0-1.4,0.6-2.5,1.7-3.3c1.1-0.9,2.7-1.4,4.7-1.8
	l3.7-0.6v-0.4c0-0.7-0.2-1.3-0.5-1.6c-0.3-0.3-0.8-0.5-1.5-0.5c-0.4,0-0.7,0.1-1,0.2c-0.3,0.1-0.6,0.4-0.9,0.6
	c-0.3,0.2-0.5,0.4-0.7,0.5c-0.1,0.1-0.2,0.2-0.3,0.2h-3.5c-0.2,0-0.4-0.1-0.5-0.2s-0.2-0.3-0.2-0.5c0-0.5,0.3-1.1,0.8-1.8
	c0.5-0.7,1.3-1.2,2.4-1.7c1.1-0.5,2.4-0.7,3.9-0.7c2.5,0,4.3,0.5,5.5,1.6c1.2,1.1,1.8,2.6,1.8,4.4v9.1c0,0.2-0.1,0.4-0.2,0.5
	c-0.1,0.2-0.3,0.2-0.5,0.2h-3.7c-0.2,0-0.4-0.1-0.5-0.2c-0.1-0.1-0.2-0.3-0.2-0.5v-1c-0.4,0.6-1,1.1-1.8,1.5
	c-0.8,0.4-1.7,0.6-2.8,0.6C30.6,21.6,29.7,21.4,28.8,21z M35.4,17.2c0.5-0.6,0.8-1.4,0.8-2.5v-0.4l-2.5,0.4
	c-1.7,0.3-2.5,0.9-2.5,1.8c0,0.5,0.2,0.8,0.6,1.1c0.4,0.3,0.9,0.4,1.5,0.4C34.1,18.1,34.8,17.8,35.4,17.2z"/>
<path class="st0" d="M45,21.1c-0.1-0.1-0.2-0.3-0.2-0.5V6.5c0-0.2,0.1-0.4,0.2-0.6s0.3-0.2,0.5-0.2h3.7c0.2,0,0.4,0.1,0.6,0.2
	C49.9,6.1,50,6.3,50,6.5v1.1c0.6-0.6,1.2-1.1,2-1.4s1.6-0.5,2.5-0.5h1.3c0.2,0,0.4,0.1,0.5,0.2c0.1,0.1,0.2,0.3,0.2,0.5v3.3
	c0,0.2-0.1,0.4-0.2,0.5c-0.1,0.2-0.3,0.2-0.5,0.2h-3c-0.8,0-1.4,0.2-1.8,0.7s-0.6,1.1-0.6,1.9v7.6c0,0.2-0.1,0.4-0.2,0.5
	c-0.1,0.1-0.3,0.2-0.6,0.2h-4C45.3,21.3,45.2,21.2,45,21.1z"/>
<path class="st0" d="M60.1,19.6c-1.4-1.3-2.1-3.2-2.2-5.7V13c0.1-2.4,0.8-4.2,2.2-5.6c1.4-1.3,3.3-2,5.7-2c1.7,0,3.2,0.3,4.4,1
	c1.2,0.7,2.1,1.6,2.7,2.9c0.6,1.2,0.9,2.6,0.9,4.1v0.8c0,0.2-0.1,0.4-0.2,0.6c-0.2,0.1-0.3,0.2-0.6,0.2h-9.5v0.2
	c0,0.9,0.2,1.6,0.6,2.2s1,0.8,1.7,0.8c0.5,0,0.9-0.1,1.2-0.3c0.3-0.2,0.6-0.4,0.8-0.7c0.2-0.2,0.3-0.3,0.4-0.4s0.3-0.1,0.5-0.1h3.9
	c0.2,0,0.3,0.1,0.5,0.2c0.1,0.1,0.2,0.2,0.2,0.4c0,0.5-0.3,1.1-0.9,1.8c-0.6,0.7-1.5,1.3-2.6,1.8s-2.5,0.8-4,0.8
	C63.4,21.6,61.5,20.9,60.1,19.6z M68.2,11.9L68.2,11.9c0-1-0.2-1.8-0.6-2.3c-0.4-0.5-1-0.8-1.8-0.8c-0.8,0-1.3,0.3-1.8,0.8
	c-0.4,0.5-0.6,1.3-0.6,2.2v0.1H68.2z"/>
<path class="st0" d="M85.3,19.5c-1.6-1.4-2.4-3.5-2.4-6.2V1.1c0-0.2,0.1-0.4,0.2-0.6c0.1-0.1,0.3-0.2,0.5-0.2h4.1
	c0.2,0,0.4,0.1,0.6,0.2c0.1,0.1,0.2,0.3,0.2,0.6v12.2c0,1.2,0.3,2.2,0.9,2.8s1.4,0.9,2.5,0.9s1.9-0.3,2.5-0.9
	c0.6-0.6,0.9-1.6,0.9-2.8V1.1c0-0.2,0.1-0.4,0.2-0.6c0.1-0.1,0.3-0.2,0.6-0.2h4.1c0.2,0,0.4,0.1,0.6,0.2c0.2,0.1,0.2,0.3,0.2,0.6
	v12.2c0,2.8-0.8,4.8-2.4,6.2c-1.6,1.4-3.8,2.1-6.6,2.1C89.1,21.6,86.9,20.9,85.3,19.5z"/>
<path class="st0" d="M105.1,21.1c-0.1-0.1-0.2-0.3-0.2-0.5V1c0-0.2,0.1-0.4,0.2-0.5c0.2-0.1,0.3-0.2,0.5-0.2h4.3
	c0.2,0,0.4,0.1,0.5,0.2c0.1,0.1,0.2,0.3,0.2,0.5v19.5c0,0.2-0.1,0.4-0.2,0.5c-0.1,0.2-0.3,0.2-0.5,0.2h-4.3
	C105.4,21.3,105.3,21.2,105.1,21.1z"/>
</svg>
