<?xml version="1.0" encoding="utf-8"?>
<!-- Generator: Adobe Illustrator 22.1.0, SVG Export Plug-In . SVG Version: 6.00 Build 0)  -->
<svg version="1.1" id="Layer_1" xmlns="http://www.w3.org/2000/svg" xmlns:xlink="http://www.w3.org/1999/xlink" x="0px" y="0px"
	 viewBox="0 0 15.5 21" style="enable-background:new 0 0 15.5 21;" xml:space="preserve">
<style type="text/css">
	.st0{fill:#FFFFFF;}
</style>
<path class="st0" d="M0.2,20.8C0.1,20.6,0,20.5,0,20.3V0.8c0-0.2,0.1-0.4,0.2-0.6C0.3,0.1,0.5,0,0.8,0h14c0.2,0,0.4,0.1,0.6,0.2
	s0.2,0.3,0.2,0.6V4c0,0.2-0.1,0.4-0.2,0.5c-0.2,0.1-0.3,0.2-0.6,0.2H5.5v4.2h8.6c0.2,0,0.4,0.1,0.6,0.2c0.1,0.1,0.2,0.3,0.2,0.6v3.2
	c0,0.2-0.1,0.4-0.2,0.5c-0.2,0.1-0.3,0.2-0.6,0.2H5.5v6.7c0,0.2-0.1,0.4-0.2,0.5C5.2,20.9,5,21,4.8,21h-4C0.5,21,0.4,20.9,0.2,20.8z
	"/>
</svg>
